# xmcd
#
# Track frame offsets:
#   150
#   16365
#   29008
#   43728
#   59960
#   74882
#   90776
#   101881
#   114207
#   128280
#   143684
#   162009
#   178373
#   199076
#   214644
#   231386
#   246733
#   260853
#
# Disc length: 3638 seconds
#
# Revision: 0
# Processed by: cddbd v1.5.2PL0 Copyright (c) Steve Scherf et al.
# Submitted via: uFREEDB ActiveX Control 1.5
#
DISCID=150e3412
DTITLE=Varios - O Melhor Da Boemia Vol. 04
DYEAR=1900
DGENRE=Country
TTITLE0=01 - Grupo Hello - Vestígios de Amor
TTITLE1=02 - Cezar e Paulinho - Noite Maravilhosa
TTITLE2=03 - Milionário e José Rico - Duas Camisas
TTITLE3=04 - Grupo Hello - Morrendo de Saudade
TTITLE4=05 - Dalvan - Mulher Maravilhosa
TTITLE5=06 - Joaquim e Manuel - Som de Cristal
TTITLE6=07 - Gian e Giovani - Roupa de Lua-de-Mel
TTITLE7=08 - Teodoro e Sampaio - Paixão Proibida
TTITLE8=09 - Bob e Robson - Toalha de Banho
TTITLE9=10 - Trio Parada Dura - Camisola Preta
TTITLE10=11 - Chitãozinho e Xororó - Amante Amada
TTITLE11=12 - João Mineiro e Marciano - Eu Volto Amanhã
TTITLE12=13 - Bob e Robson - X Salada
TTITLE13=14 - Rony e Roby - Circo da Vida
TTITLE14=15 - Chrystian e Ralf - Tempo ao Tempo
TTITLE15=16 - Trio Parada Dura - Barco de Papel
TTITLE16=17 - Tião Carreiro e Pardinho - Flor do Baile
TTITLE17=18 - Milionário e José Rico - Viva a Vida
EXTD=
EXTT0=
EXTT1=
EXTT2=
EXTT3=
EXTT4=
EXTT5=
EXTT6=
EXTT7=
EXTT8=
EXTT9=
EXTT10=
EXTT11=
EXTT12=
EXTT13=
EXTT14=
EXTT15=
EXTT16=
EXTT17=
PLAYORDER=
